<svg width="92" height="92" viewBox="0 0 92 92" fill="none" xmlns="http://www.w3.org/2000/svg">
<path d="M22.981 68.9429C29.0759 75.0378 37.3424 78.4619 45.9619 78.4619C54.5815 78.4619 62.848 75.0378 68.9429 68.9429C75.0378 62.848 78.4619 54.5815 78.4619 45.9619C78.4619 37.3424 75.0378 29.0759 68.9429 22.9809C62.848 16.886 54.5815 13.4619 45.9619 13.4619C37.3424 13.4619 29.0759 16.886 22.981 22.9809C16.886 29.0759 13.4619 37.3424 13.4619 45.9619C13.4619 54.5814 16.886 62.848 22.981 68.9429ZM47.9929 60.0349C47.9976 60.3046 47.9485 60.5725 47.8485 60.823C47.7486 61.0735 47.5997 61.3016 47.4107 61.494C47.2216 61.6863 46.9961 61.8391 46.7474 61.9434C46.4987 62.0477 46.2317 62.1014 45.9619 62.1014C45.6922 62.1014 45.4252 62.0477 45.1765 61.9434C44.9277 61.8391 44.7023 61.6863 44.5132 61.494C44.3241 61.3016 44.1753 61.0735 44.0753 60.823C43.9754 60.5725 43.9263 60.3046 43.931 60.0349L43.931 36.5024L35.9796 44.4538C35.5986 44.8347 35.082 45.0487 34.5433 45.0487C34.0045 45.0487 33.4879 44.8347 33.107 44.4538C32.726 44.0729 32.512 43.5562 32.512 43.0175C32.512 42.4788 32.726 41.9621 33.107 41.5812L44.5256 30.1625C44.9066 29.7816 45.4232 29.5676 45.9619 29.5676C46.5007 29.5676 47.0173 29.7816 47.3983 30.1625L58.8169 41.5812C59.1979 41.9621 59.4119 42.4788 59.4119 43.0175C59.4119 43.5562 59.1979 44.0729 58.8169 44.4538C58.436 44.8347 57.9193 45.0487 57.3806 45.0487C56.8419 45.0487 56.3252 44.8347 55.9443 44.4538L47.9929 36.5024V60.0349Z" fill="#56FF71"/>
</svg>
