<svg width="218" height="85" viewBox="0 0 218 85" fill="none" xmlns="http://www.w3.org/2000/svg">
<rect width="217.812" height="85" rx="15" fill="white"/>
<path d="M11.237 32.065V55H7.475V32.065H11.237ZM25.3502 36.52C26.7802 36.52 28.0562 36.817 29.1782 37.411C30.3222 38.005 31.2132 38.885 31.8512 40.051C32.4892 41.217 32.8082 42.625 32.8082 44.275V55H29.0792V44.836C29.0792 43.208 28.6722 41.965 27.8582 41.107C27.0442 40.227 25.9332 39.787 24.5252 39.787C23.1172 39.787 21.9952 40.227 21.1592 41.107C20.3452 41.965 19.9382 43.208 19.9382 44.836V55H16.1762V36.817H19.9382V38.896C20.5542 38.148 21.3352 37.565 22.2812 37.147C23.2492 36.729 24.2722 36.52 25.3502 36.52ZM39.5208 34.408C38.8388 34.408 38.2668 34.177 37.8048 33.715C37.3428 33.253 37.1118 32.681 37.1118 31.999C37.1118 31.317 37.3428 30.745 37.8048 30.283C38.2668 29.821 38.8388 29.59 39.5208 29.59C40.1808 29.59 40.7418 29.821 41.2038 30.283C41.6658 30.745 41.8968 31.317 41.8968 31.999C41.8968 32.681 41.6658 33.253 41.2038 33.715C40.7418 34.177 40.1808 34.408 39.5208 34.408ZM41.3688 36.817V55H37.6068V36.817H41.3688ZM45.054 45.892C45.054 44.022 45.428 42.383 46.176 40.975C46.946 39.545 48.002 38.445 49.344 37.675C50.686 36.905 52.226 36.52 53.964 36.52C56.164 36.52 57.979 37.048 59.409 38.104C60.861 39.138 61.84 40.623 62.346 42.559H58.287C57.957 41.657 57.429 40.953 56.703 40.447C55.977 39.941 55.064 39.688 53.964 39.688C52.424 39.688 51.192 40.238 50.268 41.338C49.366 42.416 48.915 43.934 48.915 45.892C48.915 47.85 49.366 49.379 50.268 50.479C51.192 51.579 52.424 52.129 53.964 52.129C56.142 52.129 57.583 51.172 58.287 49.258H62.346C61.818 51.106 60.828 52.58 59.376 53.68C57.924 54.758 56.12 55.297 53.964 55.297C52.226 55.297 50.686 54.912 49.344 54.142C48.002 53.35 46.946 52.25 46.176 50.842C45.428 49.412 45.054 47.762 45.054 45.892ZM68.0091 34.408C67.3271 34.408 66.7551 34.177 66.2931 33.715C65.8311 33.253 65.6001 32.681 65.6001 31.999C65.6001 31.317 65.8311 30.745 66.2931 30.283C66.7551 29.821 67.3271 29.59 68.0091 29.59C68.6691 29.59 69.2301 29.821 69.6921 30.283C70.1541 30.745 70.3851 31.317 70.3851 31.999C70.3851 32.681 70.1541 33.253 69.6921 33.715C69.2301 34.177 68.6691 34.408 68.0091 34.408ZM69.8571 36.817V55H66.0951V36.817H69.8571ZM73.5423 45.826C73.5423 44 73.9163 42.383 74.6643 40.975C75.4343 39.567 76.4683 38.478 77.7663 37.708C79.0863 36.916 80.5383 36.52 82.1223 36.52C83.5523 36.52 84.7953 36.806 85.8513 37.378C86.9293 37.928 87.7873 38.621 88.4253 39.457V36.817H92.2203V55H88.4253V52.294C87.7873 53.152 86.9183 53.867 85.8183 54.439C84.7183 55.011 83.4643 55.297 82.0563 55.297C80.4943 55.297 79.0643 54.901 77.7663 54.109C76.4683 53.295 75.4343 52.173 74.6643 50.743C73.9163 49.291 73.5423 47.652 73.5423 45.826ZM88.4253 45.892C88.4253 44.638 88.1613 43.549 87.6333 42.625C87.1273 41.701 86.4563 40.997 85.6203 40.513C84.7843 40.029 83.8823 39.787 82.9143 39.787C81.9463 39.787 81.0443 40.029 80.2083 40.513C79.3723 40.975 78.6903 41.668 78.1623 42.592C77.6563 43.494 77.4033 44.572 77.4033 45.826C77.4033 47.08 77.6563 48.18 78.1623 49.126C78.6903 50.072 79.3723 50.798 80.2083 51.304C81.0663 51.788 81.9683 52.03 82.9143 52.03C83.8823 52.03 84.7843 51.788 85.6203 51.304C86.4563 50.82 87.1273 50.116 87.6333 49.192C88.1613 48.246 88.4253 47.146 88.4253 45.892ZM112.334 55.297C110.904 55.297 109.617 55.044 108.473 54.538C107.351 54.01 106.46 53.306 105.8 52.426C105.14 51.524 104.788 50.523 104.744 49.423H108.638C108.704 50.193 109.067 50.842 109.727 51.37C110.409 51.876 111.256 52.129 112.268 52.129C113.324 52.129 114.138 51.931 114.71 51.535C115.304 51.117 115.601 50.589 115.601 49.951C115.601 49.269 115.271 48.763 114.611 48.433C113.973 48.103 112.95 47.74 111.542 47.344C110.178 46.97 109.067 46.607 108.209 46.255C107.351 45.903 106.603 45.364 105.965 44.638C105.349 43.912 105.041 42.955 105.041 41.767C105.041 40.799 105.327 39.919 105.899 39.127C106.471 38.313 107.285 37.675 108.341 37.213C109.419 36.751 110.651 36.52 112.037 36.52C114.105 36.52 115.766 37.048 117.02 38.104C118.296 39.138 118.978 40.557 119.066 42.361H115.304C115.238 41.547 114.908 40.898 114.314 40.414C113.72 39.93 112.917 39.688 111.905 39.688C110.915 39.688 110.156 39.875 109.628 40.249C109.1 40.623 108.836 41.118 108.836 41.734C108.836 42.218 109.012 42.625 109.364 42.955C109.716 43.285 110.145 43.549 110.651 43.747C111.157 43.923 111.905 44.154 112.895 44.44C114.215 44.792 115.293 45.155 116.129 45.529C116.987 45.881 117.724 46.409 118.34 47.113C118.956 47.817 119.275 48.752 119.297 49.918C119.297 50.952 119.011 51.876 118.439 52.69C117.867 53.504 117.053 54.142 115.997 54.604C114.963 55.066 113.742 55.297 112.334 55.297ZM140.027 45.463C140.027 46.145 139.983 46.761 139.895 47.311H126.002C126.112 48.763 126.651 49.929 127.619 50.809C128.587 51.689 129.775 52.129 131.183 52.129C133.207 52.129 134.637 51.282 135.473 49.588H139.532C138.982 51.26 137.981 52.635 136.529 53.713C135.099 54.769 133.317 55.297 131.183 55.297C129.445 55.297 127.883 54.912 126.497 54.142C125.133 53.35 124.055 52.25 123.263 50.842C122.493 49.412 122.108 47.762 122.108 45.892C122.108 44.022 122.482 42.383 123.23 40.975C124 39.545 125.067 38.445 126.431 37.675C127.817 36.905 129.401 36.52 131.183 36.52C132.899 36.52 134.428 36.894 135.77 37.642C137.112 38.39 138.157 39.446 138.905 40.81C139.653 42.152 140.027 43.703 140.027 45.463ZM136.1 44.275C136.078 42.889 135.583 41.778 134.615 40.942C133.647 40.106 132.448 39.688 131.018 39.688C129.72 39.688 128.609 40.106 127.685 40.942C126.761 41.756 126.211 42.867 126.035 44.275H136.1ZM150.329 55.297C148.899 55.297 147.612 55.044 146.468 54.538C145.346 54.01 144.455 53.306 143.795 52.426C143.135 51.524 142.783 50.523 142.739 49.423H146.633C146.699 50.193 147.062 50.842 147.722 51.37C148.404 51.876 149.251 52.129 150.263 52.129C151.319 52.129 152.133 51.931 152.705 51.535C153.299 51.117 153.596 50.589 153.596 49.951C153.596 49.269 153.266 48.763 152.606 48.433C151.968 48.103 150.945 47.74 149.537 47.344C148.173 46.97 147.062 46.607 146.204 46.255C145.346 45.903 144.598 45.364 143.96 44.638C143.344 43.912 143.036 42.955 143.036 41.767C143.036 40.799 143.322 39.919 143.894 39.127C144.466 38.313 145.28 37.675 146.336 37.213C147.414 36.751 148.646 36.52 150.032 36.52C152.1 36.52 153.761 37.048 155.015 38.104C156.291 39.138 156.973 40.557 157.061 42.361H153.299C153.233 41.547 152.903 40.898 152.309 40.414C151.715 39.93 150.912 39.688 149.9 39.688C148.91 39.688 148.151 39.875 147.623 40.249C147.095 40.623 146.831 41.118 146.831 41.734C146.831 42.218 147.007 42.625 147.359 42.955C147.711 43.285 148.14 43.549 148.646 43.747C149.152 43.923 149.9 44.154 150.89 44.44C152.21 44.792 153.288 45.155 154.124 45.529C154.982 45.881 155.719 46.409 156.335 47.113C156.951 47.817 157.27 48.752 157.292 49.918C157.292 50.952 157.006 51.876 156.434 52.69C155.862 53.504 155.048 54.142 153.992 54.604C152.958 55.066 151.737 55.297 150.329 55.297ZM163.271 34.408C162.589 34.408 162.017 34.177 161.555 33.715C161.093 33.253 160.862 32.681 160.862 31.999C160.862 31.317 161.093 30.745 161.555 30.283C162.017 29.821 162.589 29.59 163.271 29.59C163.931 29.59 164.492 29.821 164.954 30.283C165.416 30.745 165.647 31.317 165.647 31.999C165.647 32.681 165.416 33.253 164.954 33.715C164.492 34.177 163.931 34.408 163.271 34.408ZM165.119 36.817V55H161.357V36.817H165.119ZM177.945 55.297C176.229 55.297 174.678 54.912 173.292 54.142C171.906 53.35 170.817 52.25 170.025 50.842C169.233 49.412 168.837 47.762 168.837 45.892C168.837 44.044 169.244 42.405 170.058 40.975C170.872 39.545 171.983 38.445 173.391 37.675C174.799 36.905 176.372 36.52 178.11 36.52C179.848 36.52 181.421 36.905 182.829 37.675C184.237 38.445 185.348 39.545 186.162 40.975C186.976 42.405 187.383 44.044 187.383 45.892C187.383 47.74 186.965 49.379 186.129 50.809C185.293 52.239 184.149 53.35 182.697 54.142C181.267 54.912 179.683 55.297 177.945 55.297ZM177.945 52.03C178.913 52.03 179.815 51.799 180.651 51.337C181.509 50.875 182.202 50.182 182.73 49.258C183.258 48.334 183.522 47.212 183.522 45.892C183.522 44.572 183.269 43.461 182.763 42.559C182.257 41.635 181.586 40.942 180.75 40.48C179.914 40.018 179.012 39.787 178.044 39.787C177.076 39.787 176.174 40.018 175.338 40.48C174.524 40.942 173.875 41.635 173.391 42.559C172.907 43.461 172.665 44.572 172.665 45.892C172.665 47.85 173.16 49.368 174.15 50.446C175.162 51.502 176.427 52.03 177.945 52.03ZM181.509 31.636L174.216 35.233V32.461L181.509 28.435V31.636ZM200.276 36.52C201.706 36.52 202.982 36.817 204.104 37.411C205.248 38.005 206.139 38.885 206.777 40.051C207.415 41.217 207.734 42.625 207.734 44.275V55H204.005V44.836C204.005 43.208 203.598 41.965 202.784 41.107C201.97 40.227 200.859 39.787 199.451 39.787C198.043 39.787 196.921 40.227 196.085 41.107C195.271 41.965 194.864 43.208 194.864 44.836V55H191.102V36.817H194.864V38.896C195.48 38.148 196.261 37.565 197.207 37.147C198.175 36.729 199.198 36.52 200.276 36.52Z" fill="black"/>
</svg>
