<svg width="141" height="51" viewBox="0 0 141 51" fill="none" xmlns="http://www.w3.org/2000/svg">
<rect width="141" height="51" rx="15" fill="white"/>
<path d="M11.78 18.1V32H9.5V18.1H11.78ZM20.3334 20.8C21.2001 20.8 21.9734 20.98 22.6534 21.34C23.3468 21.7 23.8868 22.2333 24.2734 22.94C24.6601 23.6467 24.8534 24.5 24.8534 25.5V32H22.5934V25.84C22.5934 24.8533 22.3468 24.1 21.8534 23.58C21.3601 23.0467 20.6868 22.78 19.8334 22.78C18.9801 22.78 18.3001 23.0467 17.7934 23.58C17.3001 24.1 17.0534 24.8533 17.0534 25.84V32H14.7734V20.98H17.0534V22.24C17.4268 21.7867 17.9001 21.4333 18.4734 21.18C19.0601 20.9267 19.6801 20.8 20.3334 20.8ZM28.9217 19.52C28.5084 19.52 28.1617 19.38 27.8817 19.1C27.6017 18.82 27.4617 18.4733 27.4617 18.06C27.4617 17.6467 27.6017 17.3 27.8817 17.02C28.1617 16.74 28.5084 16.6 28.9217 16.6C29.3217 16.6 29.6617 16.74 29.9417 17.02C30.2217 17.3 30.3617 17.6467 30.3617 18.06C30.3617 18.4733 30.2217 18.82 29.9417 19.1C29.6617 19.38 29.3217 19.52 28.9217 19.52ZM30.0417 20.98V32H27.7617V20.98H30.0417ZM32.2752 26.48C32.2752 25.3467 32.5018 24.3533 32.9552 23.5C33.4218 22.6333 34.0618 21.9667 34.8752 21.5C35.6885 21.0333 36.6218 20.8 37.6752 20.8C39.0085 20.8 40.1085 21.12 40.9752 21.76C41.8552 22.3867 42.4485 23.2867 42.7552 24.46H40.2952C40.0952 23.9133 39.7752 23.4867 39.3352 23.18C38.8952 22.8733 38.3418 22.72 37.6752 22.72C36.7418 22.72 35.9952 23.0533 35.4352 23.72C34.8885 24.3733 34.6152 25.2933 34.6152 26.48C34.6152 27.6667 34.8885 28.5933 35.4352 29.26C35.9952 29.9267 36.7418 30.26 37.6752 30.26C38.9952 30.26 39.8685 29.68 40.2952 28.52H42.7552C42.4352 29.64 41.8352 30.5333 40.9552 31.2C40.0752 31.8533 38.9818 32.18 37.6752 32.18C36.6218 32.18 35.6885 31.9467 34.8752 31.48C34.0618 31 33.4218 30.3333 32.9552 29.48C32.5018 28.6133 32.2752 27.6133 32.2752 26.48ZM46.1873 19.52C45.774 19.52 45.4273 19.38 45.1473 19.1C44.8673 18.82 44.7273 18.4733 44.7273 18.06C44.7273 17.6467 44.8673 17.3 45.1473 17.02C45.4273 16.74 45.774 16.6 46.1873 16.6C46.5873 16.6 46.9273 16.74 47.2073 17.02C47.4873 17.3 47.6273 17.6467 47.6273 18.06C47.6273 18.4733 47.4873 18.82 47.2073 19.1C46.9273 19.38 46.5873 19.52 46.1873 19.52ZM47.3073 20.98V32H45.0273V20.98H47.3073ZM49.5408 26.44C49.5408 25.3333 49.7674 24.3533 50.2208 23.5C50.6874 22.6467 51.3141 21.9867 52.1008 21.52C52.9008 21.04 53.7808 20.8 54.7408 20.8C55.6074 20.8 56.3608 20.9733 57.0008 21.32C57.6541 21.6533 58.1741 22.0733 58.5608 22.58V20.98H60.8608V32H58.5608V30.36C58.1741 30.88 57.6474 31.3133 56.9808 31.66C56.3141 32.0067 55.5541 32.18 54.7008 32.18C53.7541 32.18 52.8874 31.94 52.1008 31.46C51.3141 30.9667 50.6874 30.2867 50.2208 29.42C49.7674 28.54 49.5408 27.5467 49.5408 26.44ZM58.5608 26.48C58.5608 25.72 58.4008 25.06 58.0808 24.5C57.7741 23.94 57.3674 23.5133 56.8608 23.22C56.3541 22.9267 55.8074 22.78 55.2208 22.78C54.6341 22.78 54.0874 22.9267 53.5808 23.22C53.0741 23.5 52.6608 23.92 52.3408 24.48C52.0341 25.0267 51.8808 25.68 51.8808 26.44C51.8808 27.2 52.0341 27.8667 52.3408 28.44C52.6608 29.0133 53.0741 29.4533 53.5808 29.76C54.1008 30.0533 54.6474 30.2 55.2208 30.2C55.8074 30.2 56.3541 30.0533 56.8608 29.76C57.3674 29.4667 57.7741 29.04 58.0808 28.48C58.4008 27.9067 58.5608 27.24 58.5608 26.48ZM73.0508 32.18C72.1841 32.18 71.4041 32.0267 70.7108 31.72C70.0308 31.4 69.4908 30.9733 69.0908 30.44C68.6908 29.8933 68.4774 29.2867 68.4508 28.62H70.8108C70.8508 29.0867 71.0708 29.48 71.4708 29.8C71.8841 30.1067 72.3974 30.26 73.0108 30.26C73.6508 30.26 74.1441 30.14 74.4908 29.9C74.8508 29.6467 75.0308 29.3267 75.0308 28.94C75.0308 28.5267 74.8308 28.22 74.4308 28.02C74.0441 27.82 73.4241 27.6 72.5708 27.36C71.7441 27.1333 71.0708 26.9133 70.5508 26.7C70.0308 26.4867 69.5774 26.16 69.1908 25.72C68.8174 25.28 68.6308 24.7 68.6308 23.98C68.6308 23.3933 68.8041 22.86 69.1508 22.38C69.4974 21.8867 69.9908 21.5 70.6308 21.22C71.2841 20.94 72.0308 20.8 72.8708 20.8C74.1241 20.8 75.1308 21.12 75.8908 21.76C76.6641 22.3867 77.0774 23.2467 77.1308 24.34H74.8508C74.8108 23.8467 74.6108 23.4533 74.2508 23.16C73.8908 22.8667 73.4041 22.72 72.7908 22.72C72.1908 22.72 71.7308 22.8333 71.4108 23.06C71.0908 23.2867 70.9308 23.5867 70.9308 23.96C70.9308 24.2533 71.0374 24.5 71.2508 24.7C71.4641 24.9 71.7241 25.06 72.0308 25.18C72.3374 25.2867 72.7908 25.4267 73.3908 25.6C74.1908 25.8133 74.8441 26.0333 75.3508 26.26C75.8708 26.4733 76.3174 26.7933 76.6908 27.22C77.0641 27.6467 77.2574 28.2133 77.2708 28.92C77.2708 29.5467 77.0974 30.1067 76.7508 30.6C76.4041 31.0933 75.9108 31.48 75.2708 31.76C74.6441 32.04 73.9041 32.18 73.0508 32.18ZM89.8344 26.22C89.8344 26.6333 89.8077 27.0067 89.7544 27.34H81.3344C81.401 28.22 81.7277 28.9267 82.3144 29.46C82.901 29.9933 83.621 30.26 84.4744 30.26C85.701 30.26 86.5677 29.7467 87.0744 28.72H89.5344C89.201 29.7333 88.5944 30.5667 87.7144 31.22C86.8477 31.86 85.7677 32.18 84.4744 32.18C83.421 32.18 82.4744 31.9467 81.6344 31.48C80.8077 31 80.1544 30.3333 79.6744 29.48C79.2077 28.6133 78.9744 27.6133 78.9744 26.48C78.9744 25.3467 79.201 24.3533 79.6544 23.5C80.121 22.6333 80.7677 21.9667 81.5944 21.5C82.4344 21.0333 83.3944 20.8 84.4744 20.8C85.5144 20.8 86.441 21.0267 87.2544 21.48C88.0677 21.9333 88.701 22.5733 89.1544 23.4C89.6077 24.2133 89.8344 25.1533 89.8344 26.22ZM87.4544 25.5C87.441 24.66 87.141 23.9867 86.5544 23.48C85.9677 22.9733 85.241 22.72 84.3744 22.72C83.5877 22.72 82.9144 22.9733 82.3544 23.48C81.7944 23.9733 81.461 24.6467 81.3544 25.5H87.4544ZM96.0781 32.18C95.2115 32.18 94.4315 32.0267 93.7381 31.72C93.0581 31.4 92.5181 30.9733 92.1181 30.44C91.7181 29.8933 91.5048 29.2867 91.4781 28.62H93.8381C93.8781 29.0867 94.0981 29.48 94.4981 29.8C94.9115 30.1067 95.4248 30.26 96.0381 30.26C96.6781 30.26 97.1715 30.14 97.5181 29.9C97.8781 29.6467 98.0581 29.3267 98.0581 28.94C98.0581 28.5267 97.8581 28.22 97.4581 28.02C97.0715 27.82 96.4515 27.6 95.5981 27.36C94.7715 27.1333 94.0981 26.9133 93.5781 26.7C93.0581 26.4867 92.6048 26.16 92.2181 25.72C91.8448 25.28 91.6581 24.7 91.6581 23.98C91.6581 23.3933 91.8315 22.86 92.1781 22.38C92.5248 21.8867 93.0181 21.5 93.6581 21.22C94.3115 20.94 95.0581 20.8 95.8981 20.8C97.1515 20.8 98.1581 21.12 98.9181 21.76C99.6915 22.3867 100.105 23.2467 100.158 24.34H97.8781C97.8381 23.8467 97.6381 23.4533 97.2781 23.16C96.9181 22.8667 96.4315 22.72 95.8181 22.72C95.2181 22.72 94.7581 22.8333 94.4381 23.06C94.1181 23.2867 93.9581 23.5867 93.9581 23.96C93.9581 24.2533 94.0648 24.5 94.2781 24.7C94.4915 24.9 94.7515 25.06 95.0581 25.18C95.3648 25.2867 95.8181 25.4267 96.4181 25.6C97.2181 25.8133 97.8715 26.0333 98.3781 26.26C98.8981 26.4733 99.3448 26.7933 99.7181 27.22C100.091 27.6467 100.285 28.2133 100.298 28.92C100.298 29.5467 100.125 30.1067 99.7781 30.6C99.4315 31.0933 98.9381 31.48 98.2981 31.76C97.6715 32.04 96.9315 32.18 96.0781 32.18ZM103.922 19.52C103.508 19.52 103.162 19.38 102.882 19.1C102.602 18.82 102.462 18.4733 102.462 18.06C102.462 17.6467 102.602 17.3 102.882 17.02C103.162 16.74 103.508 16.6 103.922 16.6C104.322 16.6 104.662 16.74 104.942 17.02C105.222 17.3 105.362 17.6467 105.362 18.06C105.362 18.4733 105.222 18.82 104.942 19.1C104.662 19.38 104.322 19.52 103.922 19.52ZM105.042 20.98V32H102.762V20.98H105.042ZM112.815 32.18C111.775 32.18 110.835 31.9467 109.995 31.48C109.155 31 108.495 30.3333 108.015 29.48C107.535 28.6133 107.295 27.6133 107.295 26.48C107.295 25.36 107.542 24.3667 108.035 23.5C108.528 22.6333 109.202 21.9667 110.055 21.5C110.908 21.0333 111.862 20.8 112.915 20.8C113.968 20.8 114.922 21.0333 115.775 21.5C116.628 21.9667 117.302 22.6333 117.795 23.5C118.288 24.3667 118.535 25.36 118.535 26.48C118.535 27.6 118.282 28.5933 117.775 29.46C117.268 30.3267 116.575 31 115.695 31.48C114.828 31.9467 113.868 32.18 112.815 32.18ZM112.815 30.2C113.402 30.2 113.948 30.06 114.455 29.78C114.975 29.5 115.395 29.08 115.715 28.52C116.035 27.96 116.195 27.28 116.195 26.48C116.195 25.68 116.042 25.0067 115.735 24.46C115.428 23.9 115.022 23.48 114.515 23.2C114.008 22.92 113.462 22.78 112.875 22.78C112.288 22.78 111.742 22.92 111.235 23.2C110.742 23.48 110.348 23.9 110.055 24.46C109.762 25.0067 109.615 25.68 109.615 26.48C109.615 27.6667 109.915 28.5867 110.515 29.24C111.128 29.88 111.895 30.2 112.815 30.2ZM114.975 17.84L110.555 20.02V18.34L114.975 15.9V17.84ZM126.349 20.8C127.216 20.8 127.989 20.98 128.669 21.34C129.362 21.7 129.902 22.2333 130.289 22.94C130.676 23.6467 130.869 24.5 130.869 25.5V32H128.609V25.84C128.609 24.8533 128.362 24.1 127.869 23.58C127.376 23.0467 126.702 22.78 125.849 22.78C124.996 22.78 124.316 23.0467 123.809 23.58C123.316 24.1 123.069 24.8533 123.069 25.84V32H120.789V20.98H123.069V22.24C123.442 21.7867 123.916 21.4333 124.489 21.18C125.076 20.9267 125.696 20.8 126.349 20.8Z" fill="black"/>
</svg>
