<svg width="18" height="18" viewBox="0 0 18 18" fill="none" xmlns="http://www.w3.org/2000/svg">
<path d="M11.6875 6.375C11.6875 7.22038 11.3517 8.03113 10.7539 8.6289C10.1561 9.22668 9.34538 9.5625 8.5 9.5625C7.65462 9.5625 6.84387 9.22668 6.2461 8.6289C5.64833 8.03113 5.3125 7.22038 5.3125 6.375C5.3125 5.52962 5.64833 4.71887 6.2461 4.1211C6.84387 3.52333 7.65462 3.1875 8.5 3.1875C9.34538 3.1875 10.1561 3.52333 10.7539 4.1211C11.3517 4.71887 11.6875 5.52962 11.6875 6.375Z" fill="white"/>
<path fill-rule="evenodd" clip-rule="evenodd" d="M0 8.5C0 6.24566 0.895533 4.08365 2.48959 2.48959C4.08365 0.895533 6.24566 0 8.5 0C10.7543 0 12.9163 0.895533 14.5104 2.48959C16.1045 4.08365 17 6.24566 17 8.5C17 10.7543 16.1045 12.9163 14.5104 14.5104C12.9163 16.1045 10.7543 17 8.5 17C6.24566 17 4.08365 16.1045 2.48959 14.5104C0.895533 12.9163 0 10.7543 0 8.5ZM8.5 1.0625C7.09939 1.06257 5.72726 1.45814 4.54155 2.20365C3.35584 2.94917 2.40474 4.01435 1.79771 5.27658C1.19069 6.53881 0.952411 7.9468 1.11031 9.33848C1.26821 10.7302 1.81587 12.049 2.69025 13.1431C3.44463 11.9276 5.10531 10.625 8.5 10.625C11.8947 10.625 13.5543 11.9266 14.3098 13.1431C15.1841 12.049 15.7318 10.7302 15.8897 9.33848C16.0476 7.9468 15.8093 6.53881 15.2023 5.27658C14.5953 4.01435 13.6442 2.94917 12.4584 2.20365C11.2727 1.45814 9.90061 1.06257 8.5 1.0625Z" fill="white"/>
</svg>
